<svg width="33" height="34" fill="none" xmlns="http://www.w3.org/2000/svg"><g clip-path="url(#clip0)"><path d="M8.722 29.12l.54.274c2.248 1.374 4.765 2.015 7.283 2.015 7.913 0 14.387-6.593 14.387-14.652 0-3.846-1.528-7.6-4.226-10.347-2.697-2.747-6.294-4.304-10.16-4.304-7.914 0-14.388 6.593-14.298 14.743 0 2.747.81 5.403 2.158 7.692l.36.55-1.439 5.402 5.395-1.374z" fill="#00E676"/><path d="M28.235 4.945C25.177 1.74 20.95 0 16.635 0 7.463 0 .09 7.6.18 16.849c0 2.93.81 5.77 2.158 8.333L0 33.882l8.722-2.29c2.428 1.374 5.126 2.015 7.823 2.015 9.082 0 16.456-7.6 16.456-16.85 0-4.486-1.709-8.699-4.766-11.812zm-11.6 25.823c-2.428 0-4.856-.64-6.924-1.923l-.54-.275-5.214 1.374 1.348-5.22-.36-.55C.99 17.675 2.878 9.067 9.353 5.037c6.474-4.029 14.836-2.106 18.793 4.487 3.956 6.593 2.068 15.11-4.406 19.139-2.068 1.373-4.586 2.106-7.104 2.106zm7.913-10.164l-.99-.458s-1.438-.641-2.337-1.099c-.09 0-.18-.092-.27-.092-.27 0-.45.092-.63.184 0 0-.089.091-1.348 1.556a.493.493 0 01-.45.275h-.09c-.09 0-.27-.092-.36-.183l-.449-.183c-.989-.458-1.888-1.008-2.607-1.74-.18-.183-.45-.366-.63-.55-.63-.64-1.259-1.373-1.708-2.197l-.09-.184c-.09-.091-.09-.183-.18-.366 0-.183 0-.366.09-.458 0 0 .36-.457.63-.732.18-.183.269-.458.449-.641.18-.275.27-.641.18-.916-.09-.458-1.17-2.93-1.439-3.48-.18-.274-.36-.366-.63-.457H10.7c-.18 0-.36.091-.54.091l-.09.092c-.179.091-.359.274-.539.366-.18.183-.27.366-.45.55-.629.824-.988 1.83-.988 2.838 0 .733.18 1.465.45 2.106l.09.275a15.246 15.246 0 003.326 4.67l.36.366c.27.275.54.458.72.733 1.888 1.648 4.046 2.839 6.473 3.48.27.091.63.091.9.183h.899c.45 0 .989-.183 1.349-.366.27-.184.45-.184.63-.367l.18-.183c.179-.183.359-.275.539-.458.18-.183.36-.366.45-.55.179-.366.269-.823.359-1.281v-.641s-.09-.092-.27-.183z" fill="#E0DDDA"/></g><defs><clipPath id="clip0"><path fill="#fff" d="M0 0h33v34H0z"/></clipPath></defs></svg>