<svg width="28" height="31" viewBox="0 0 28 31" fill="none" xmlns="http://www.w3.org/2000/svg">
<path d="M26.7696 29.4415C26.1225 30.0869 25.245 30.4495 24.33 30.4495C23.4149 30.4495 22.5374 30.0869 21.8903 29.4415L14.2682 20.7506L6.646 29.4386C6.32658 29.7625 5.94603 30.0201 5.52632 30.1965C5.1066 30.3729 4.65602 30.4647 4.20057 30.4666C3.74511 30.4684 3.2938 30.3803 2.87266 30.2073C2.45152 30.0343 2.06888 29.7798 1.74683 29.4585C1.42477 29.1372 1.16966 28.7555 0.996225 28.3354C0.822786 27.9153 0.734446 27.465 0.736301 27.0107C0.738155 26.5563 0.830167 26.1068 1.00703 25.6881C1.18389 25.2694 1.44211 24.8898 1.76678 24.5712L9.69659 15.5361L1.7639 6.49539C1.43923 6.17674 1.18102 5.79712 1.00416 5.37842C0.827294 4.95971 0.735281 4.51022 0.733427 4.05587C0.731572 3.60152 0.819913 3.15129 0.993352 2.73117C1.16679 2.31105 1.4219 1.92934 1.74395 1.60806C2.06601 1.28678 2.44864 1.03229 2.86979 0.85927C3.29093 0.686251 3.74224 0.598124 4.19769 0.599974C4.65315 0.601824 5.10373 0.693614 5.52344 0.870049C5.94316 1.04648 6.3237 1.30407 6.64313 1.62796L14.2682 10.3217L21.8903 1.62796C22.2098 1.30408 22.5903 1.04649 23.01 0.87005C23.4297 0.693615 23.8803 0.601825 24.3358 0.599975C24.7912 0.598125 25.2425 0.686252 25.6637 0.859272C26.0848 1.03229 26.4675 1.28678 26.7895 1.60806C27.1116 1.92934 27.3667 2.31105 27.5401 2.73117C27.7136 3.1513 27.8019 3.60152 27.8 4.05587C27.7982 4.51023 27.7062 4.95972 27.5293 5.37842C27.3524 5.79712 27.0942 6.17674 26.7696 6.4954L18.8397 15.5361L26.7696 24.5712C27.0904 24.8908 27.3448 25.2704 27.5185 25.6883C27.6921 26.1061 27.7815 26.554 27.7815 27.0063C27.7815 27.4586 27.6921 27.9065 27.5185 28.3244C27.3448 28.7422 27.0904 29.1218 26.7696 29.4415Z" fill="white"/>
</svg>
