<svg width="38" height="38" viewBox="0 0 38 38" fill="none" xmlns="http://www.w3.org/2000/svg">
<path d="M18.9996 0C13.8351 0 13.1915 0.0249375 11.1704 0.110438C9.14095 0.210187 7.7682 0.524875 6.55695 0.995125C5.28925 1.47371 4.14118 2.22302 3.19277 3.19081C2.22227 4.13701 1.47255 5.28572 0.997078 6.555C0.526828 7.76625 0.212141 9.139 0.112391 11.1684C0.0209531 13.1907 0.00195312 13.8332 0.00195312 18.9976C0.00195312 24.1621 0.0268906 24.8057 0.112391 26.8268C0.212141 28.8503 0.526828 30.229 0.997078 31.4403C1.47566 32.708 2.22497 33.856 3.19277 34.8044C4.13896 35.7749 5.28767 36.5247 6.55695 37.0001C7.7682 37.4644 9.14689 37.7851 11.1704 37.8848C13.1927 37.9762 13.8351 37.9953 18.9996 37.9953C24.164 37.9953 24.8076 37.9703 26.8288 37.8848C28.8523 37.7851 30.231 37.4632 31.4422 37.0001C32.7099 36.5215 33.858 35.7722 34.8064 34.8044C35.7781 33.8593 36.528 32.7103 37.0021 31.4403C37.4664 30.229 37.787 28.8503 37.8868 26.8268C37.9782 24.8045 37.9972 24.1621 37.9972 18.9976C37.9972 13.8332 37.9723 13.1896 37.8868 11.1684C37.787 9.14494 37.4652 7.75913 37.0021 6.555C36.5235 5.2873 35.7742 4.13923 34.8064 3.19081C33.8612 2.21907 32.7122 1.46915 31.4422 0.995125C30.231 0.524875 28.8523 0.210187 26.8288 0.110438C24.8065 0.019 24.164 0 18.9996 0ZM18.9996 3.42C24.0714 3.42 24.677 3.44494 26.6815 3.53044C28.5305 3.61713 29.5375 3.92587 30.206 4.18713C31.0325 4.49222 31.7806 4.97782 32.3958 5.60856C33.0254 6.22111 33.5092 6.96747 33.8113 7.79237C34.0725 8.46094 34.3813 9.46794 34.468 11.3169C34.5535 13.3214 34.5784 13.9282 34.5784 18.9988C34.5784 24.0694 34.5535 24.6763 34.4608 26.6807C34.3611 28.5297 34.0523 29.5367 33.7923 30.2053C33.4325 31.0971 33.0311 31.7205 32.3685 32.395C31.7512 33.0218 31.0036 33.5051 30.1787 33.8105C29.5185 34.0718 28.4972 34.3805 26.6411 34.4672C24.626 34.5527 24.0322 34.5776 18.9473 34.5776C13.8625 34.5776 13.2699 34.5527 11.2523 34.4601C9.40339 34.3603 8.38333 34.0516 7.71477 33.7915C6.81227 33.4317 6.19358 33.0303 5.53095 32.3677C4.86239 31.6991 4.43727 31.0626 4.10952 30.1779C3.84352 29.5177 3.53952 28.4964 3.44095 26.6404C3.37327 24.6489 3.3412 24.0314 3.3412 18.9703C3.3412 13.9116 3.37327 13.2929 3.44095 11.2765C3.53952 9.42044 3.84352 8.40156 4.10952 7.73894C4.43727 6.83525 4.86358 6.21775 5.53095 5.54919C6.19239 4.88775 6.81227 4.46025 7.71477 4.12537C8.38333 3.86531 9.37845 3.55656 11.2345 3.46394C13.2497 3.3915 13.8435 3.36538 18.9212 3.36538L18.9996 3.42ZM18.9996 9.24706C17.7187 9.24659 16.4502 9.49854 15.2667 9.98851C14.0832 10.4785 13.0079 11.1969 12.1022 12.1026C11.1964 13.0083 10.4781 14.0837 9.98808 15.2672C9.49812 16.4507 9.24617 17.7191 9.24664 19C9.24617 20.2809 9.49812 21.5494 9.98808 22.7328C10.4781 23.9163 11.1964 24.9917 12.1022 25.8974C13.0079 26.8032 14.0832 27.5215 15.2667 28.0115C16.4502 28.5015 17.7187 28.7534 18.9996 28.7529C20.2805 28.7534 21.5489 28.5015 22.7324 28.0115C23.9159 27.5215 24.9913 26.8032 25.897 25.8974C26.8027 24.9917 27.5211 23.9163 28.0111 22.7328C28.501 21.5494 28.753 20.2809 28.7525 19C28.753 17.7191 28.501 16.4507 28.0111 15.2672C27.5211 14.0837 26.8027 13.0083 25.897 12.1026C24.9913 11.1969 23.9159 10.4785 22.7324 9.98851C21.5489 9.49854 20.2805 9.24659 18.9996 9.24706ZM18.9996 25.3329C15.4988 25.3329 12.6666 22.5007 12.6666 19C12.6666 15.4993 15.4988 12.6671 18.9996 12.6671C22.5003 12.6671 25.3325 15.4993 25.3325 19C25.3325 22.5007 22.5003 25.3329 18.9996 25.3329ZM31.4256 8.85756C31.4249 9.46279 31.1841 10.043 30.7559 10.4707C30.3277 10.8985 29.7472 11.1388 29.142 11.1388C28.8428 11.1388 28.5464 11.0798 28.27 10.9653C27.9935 10.8508 27.7423 10.6829 27.5307 10.4713C27.319 10.2597 27.1512 10.0085 27.0367 9.732C26.9221 9.45552 26.8632 9.15919 26.8632 8.85994C26.8632 8.56068 26.9221 8.26435 27.0367 7.98787C27.1512 7.7114 27.319 7.46018 27.5307 7.24857C27.7423 7.03697 27.9935 6.86911 28.27 6.75459C28.5464 6.64007 28.8428 6.58112 29.142 6.58112C30.3972 6.58112 31.4256 7.60238 31.4256 8.85756Z" fill="#E0DDDA"/>
</svg>
