<svg width="35" height="29" viewBox="0 0 35 29" fill="none" xmlns="http://www.w3.org/2000/svg">
<path d="M5.96883 0.833496H29.0313C30.4495 0.833403 31.8139 1.37598 32.8447 2.34993C33.8755 3.32389 34.4946 4.65537 34.5749 6.07125L34.5834 6.38558V22.6147C34.5835 24.0329 34.0409 25.3973 33.067 26.4281C32.093 27.459 30.7615 28.078 29.3457 28.1583L29.0313 28.1668H5.96883C4.55068 28.1669 3.18625 27.6243 2.15544 26.6504C1.12462 25.6764 0.505579 24.345 0.42529 22.9291L0.416748 22.6147V6.38558C0.416655 4.96743 0.959236 3.603 1.93319 2.57219C2.90714 1.54137 4.23862 0.922327 5.6545 0.842038L5.96883 0.833496H29.0313H5.96883ZM32.0209 10.0124L18.098 17.3411C17.9408 17.4242 17.768 17.4736 17.5907 17.4862C17.4133 17.4989 17.2353 17.4745 17.0679 17.4146L16.9039 17.3428L2.97925 10.0141V22.6147C2.97928 23.365 3.26142 24.0879 3.76966 24.6398C4.2779 25.1917 4.97509 25.5323 5.72283 25.5941L5.96883 25.6043H29.0313C29.7819 25.6043 30.505 25.3219 31.0569 24.8133C31.6089 24.3047 31.9493 23.6071 32.0107 22.859L32.0209 22.6147V10.0124ZM29.0313 3.396H5.96883C5.21855 3.39602 4.49571 3.67816 3.94379 4.18641C3.39187 4.69465 3.05124 5.39184 2.9895 6.13958L2.97925 6.38558V7.11845L17.5001 14.7598L32.0209 7.11675V6.38558C32.0209 5.63502 31.7385 4.91195 31.2299 4.35999C30.7213 3.80804 30.0237 3.46758 29.2756 3.40625L29.0313 3.396Z" fill="#E0DDDA"/>
</svg>
