<svg width="33" height="34" viewBox="0 0 33 34" fill="none" xmlns="http://www.w3.org/2000/svg">
<g clip-path="url(#clip0)">
<path d="M8.72218 29.1194L9.26166 29.3942C11.5098 30.7677 14.0275 31.4087 16.5452 31.4087C24.4582 31.4087 30.9323 24.8156 30.9323 16.7573C30.9323 12.9114 29.4036 9.15695 26.7062 6.40978C24.0085 3.66261 20.4117 2.10596 16.5452 2.10596C8.63234 2.10596 2.15802 8.69907 2.248 16.849C2.248 19.596 3.05727 22.2517 4.40602 24.5408L4.76567 25.0903L3.32707 30.4931L8.72218 29.1194Z" fill="#00E676"/>
<path d="M28.2347 4.94483C25.1775 1.73991 20.9513 0 16.6351 0C7.46341 0 0.0899766 7.60038 0.179824 16.849C0.179824 19.7793 0.989098 22.6181 2.33797 25.1821L0 33.8813L8.72218 31.592C11.15 32.9657 13.8475 33.6067 16.5452 33.6067C25.6271 33.6067 33.0005 26.0062 33.0005 16.7577C33.0005 12.2706 31.292 8.05826 28.2349 4.94483H28.2347ZM16.6351 30.768C14.2073 30.768 11.7795 30.1272 9.71128 28.8451L9.17181 28.5704L3.95652 29.9439L5.30527 24.7244L4.94562 24.1749C0.989098 17.6734 2.87745 9.06553 9.35163 5.03633C15.8258 1.00727 24.1884 2.9303 28.1449 9.52341C32.1013 16.1165 30.2129 24.6327 23.7389 28.6619C21.6706 30.0354 19.1529 30.7679 16.6351 30.7679V30.768ZM24.548 20.6037L23.5589 20.1459C23.5589 20.1459 22.1203 19.5048 21.2211 19.047C21.1311 19.047 21.0412 18.9553 20.9513 18.9553C20.6815 18.9553 20.5016 19.047 20.3218 19.1386C20.3218 19.1386 20.232 19.2301 18.9731 20.6952C18.8831 20.8784 18.7033 20.97 18.5234 20.97H18.4335C18.3436 20.97 18.1638 20.8784 18.0738 20.7869L17.6242 20.6037C16.6351 20.1459 15.736 19.5963 15.0165 18.8638C14.8367 18.6807 14.5669 18.4976 14.3871 18.3145C13.7576 17.6734 13.1282 16.9408 12.6787 16.1167L12.5887 15.9335C12.4989 15.8419 12.4989 15.7504 12.4089 15.5673C12.4089 15.3841 12.4089 15.201 12.4989 15.1094C12.4989 15.1094 12.8585 14.6515 13.1282 14.3769C13.3082 14.1936 13.398 13.919 13.5778 13.7359C13.7576 13.4611 13.8476 13.0949 13.7576 12.8201C13.6678 12.3622 12.5887 9.8898 12.3191 9.34042C12.1391 9.06566 11.9594 8.97416 11.6896 8.88253H10.7005C10.5206 8.88253 10.3409 8.97416 10.1609 8.97416L10.0709 9.06566C9.89111 9.15729 9.71128 9.34042 9.53146 9.43192C9.35163 9.61518 9.26166 9.79817 9.08183 9.98143C8.45238 10.8056 8.09273 11.8128 8.09273 12.8201C8.09273 13.5526 8.27256 14.2853 8.54236 14.9263L8.63234 15.201C9.44161 16.9408 10.5206 18.4976 11.9594 19.8711L12.3191 20.2374C12.5887 20.5121 12.8585 20.6952 13.0384 20.9699C14.9267 22.6183 17.0847 23.8087 19.5125 24.4497C19.7823 24.5412 20.142 24.5412 20.4118 24.6328H21.3109C21.7605 24.6328 22.3 24.4497 22.6598 24.2666C22.9295 24.0834 23.1093 24.0834 23.2891 23.9003L23.4691 23.717C23.6489 23.5339 23.8287 23.4424 24.0085 23.2593C24.1884 23.0762 24.3682 22.893 24.4582 22.7098C24.638 22.3435 24.7278 21.8856 24.8178 21.4279V20.7869C24.8178 20.7869 24.7278 20.6952 24.548 20.6037Z" fill="#E0DDDA"/>
</g>
<defs>
<clipPath id="clip0">
<rect width="33" height="34" fill="white"/>
</clipPath>
</defs>
</svg>
