<svg width="40" height="40" fill="none" xmlns="http://www.w3.org/2000/svg"><path d="M7.894.75A7.172 7.172 0 00.75 7.893v24.213a7.172 7.172 0 007.143 7.144h24.213a7.172 7.172 0 007.144-7.144V7.893A7.172 7.172 0 0032.106.75H7.893zm0 3.5h24.212a3.621 3.621 0 013.644 3.644v24.212a3.621 3.621 0 01-3.644 3.644H7.893a3.622 3.622 0 01-3.643-3.644V7.893A3.621 3.621 0 017.894 4.25zm11.614 9.152c-1.286-.012-2.38 0-2.994.302-.411.199-.724.649-.534.67.24.035.779.15 1.068.54.367.5.355 1.628.355 1.628s.205 3.103-.5 3.493c-.485.266-1.148-.275-2.583-2.742-.732-1.27-1.285-2.672-1.285-2.672s-.105-.261-.294-.398a1.526 1.526 0 00-.555-.226l-3.425.021s-.512.021-.696.24c-.171.205-.014.608-.014.608s2.68 6.268 5.714 9.427c2.782 2.9 5.941 2.707 5.941 2.707h1.435s.43-.047.65-.28c.206-.219.199-.63.199-.63s-.028-1.92.86-2.207c.883-.274 2.003 1.859 3.2 2.68.91.62 1.6.484 1.6.484l3.2-.047s1.668-.103.875-1.423c-.061-.101-.459-.97-2.371-2.747-2.011-1.859-1.743-1.558.675-4.778 1.47-1.962 2.058-3.159 1.873-3.678-.175-.485-1.257-.356-1.257-.356l-3.603.021s-.266-.034-.464.083a1.007 1.007 0 00-.315.388s-.574 1.518-1.333 2.81c-1.6 2.72-2.249 2.87-2.508 2.701-.609-.397-.459-1.587-.459-2.427 0-2.646.403-3.74-.778-4.025-.39-.097-.677-.158-1.675-.167h-.002z" fill="#C4C4C4"/></svg>