<svg width="28" height="31" fill="none" xmlns="http://www.w3.org/2000/svg"><path d="M26.77 29.442a3.455 3.455 0 01-4.88 0l-7.622-8.691-7.622 8.688a3.45 3.45 0 01-2.445 1.028 3.459 3.459 0 01-2.454-1.008 3.442 3.442 0 01-.74-3.77 3.44 3.44 0 01.76-1.118l7.93-9.035-7.933-9.04a3.441 3.441 0 01-.77-3.765A3.441 3.441 0 012.87.86a3.458 3.458 0 013.773.769l7.625 8.694 7.622-8.694A3.452 3.452 0 0125.664.86a3.45 3.45 0 011.876 1.872 3.433 3.433 0 01-.77 3.764l-7.93 9.041 7.93 9.035a3.441 3.441 0 01.748 3.753 3.443 3.443 0 01-.748 1.117z" fill="#fff"/></svg>