<svg width="40" height="40" viewBox="0 0 40 40" fill="none" xmlns="http://www.w3.org/2000/svg">
<path d="M7.8935 0.75C6.0012 0.757374 4.1885 1.51236 2.85043 2.85043C1.51236 4.1885 0.757374 6.0012 0.75 7.8935V32.1065C0.757374 33.9988 1.51236 35.8115 2.85043 37.1496C4.1885 38.4876 6.0012 39.2426 7.8935 39.25H32.1065C33.9988 39.2426 35.8115 38.4876 37.1496 37.1496C38.4876 35.8115 39.2426 33.9988 39.25 32.1065V7.8935C39.2426 6.0012 38.4876 4.1885 37.1496 2.85043C35.8115 1.51236 33.9988 0.757374 32.1065 0.75H7.8935ZM7.8935 4.25H32.1065C34.1365 4.25 35.75 5.8635 35.75 7.8935V32.1065C35.75 34.1365 34.1365 35.75 32.1065 35.75H7.8935C7.41418 35.753 6.93904 35.6608 6.49563 35.4788C6.05221 35.2968 5.64936 35.0285 5.31042 34.6896C4.97149 34.3506 4.70322 33.9478 4.52119 33.5044C4.33916 33.061 4.24698 32.5858 4.25 32.1065V7.8935C4.25 5.8635 5.8635 4.25 7.8935 4.25ZM19.5082 13.4025C18.222 13.3902 17.1283 13.4025 16.514 13.7035C16.1028 13.903 15.7895 14.3527 15.9803 14.3737C16.22 14.4087 16.759 14.5242 17.0477 14.9145C17.4152 15.4132 17.403 16.542 17.403 16.542C17.403 16.542 17.6077 19.6448 16.9025 20.035C16.4177 20.301 15.7545 19.7603 14.3195 17.2928C13.588 16.0223 13.035 14.6205 13.035 14.6205C13.035 14.6205 12.93 14.3598 12.741 14.2233C12.5083 14.0535 12.1862 13.9975 12.1862 13.9975L8.7615 14.0185C8.7615 14.0185 8.24875 14.0395 8.065 14.2582C7.8935 14.463 8.051 14.8655 8.051 14.8655C8.051 14.8655 10.7303 21.134 13.7648 24.2927C16.5473 27.1925 19.706 27 19.706 27H21.141C21.141 27 21.5715 26.9528 21.7903 26.72C21.9968 26.5013 21.9897 26.09 21.9897 26.09C21.9897 26.09 21.9617 24.1702 22.8507 23.8832C23.7327 23.6085 24.8528 25.7417 26.0498 26.5625C26.9598 27.1837 27.6493 27.0473 27.6493 27.0473L30.85 27C30.85 27 32.5178 26.8968 31.725 25.5773C31.6638 25.4758 31.2665 24.6078 29.3537 22.8298C27.343 20.9713 27.6108 21.2723 30.0293 18.0523C31.4993 16.0905 32.0873 14.8935 31.9018 14.3737C31.7268 13.889 30.6453 14.0185 30.6453 14.0185L27.042 14.0395C27.042 14.0395 26.776 14.0045 26.5783 14.1217C26.4423 14.2227 26.3339 14.3563 26.2633 14.5102C26.2633 14.5102 25.6892 16.0275 24.9297 17.3207C23.3302 20.0402 22.681 20.1907 22.422 20.021C21.813 19.6237 21.9635 18.4337 21.9635 17.5938C21.9635 14.9478 22.366 13.854 21.1848 13.5687C20.7945 13.4725 20.5075 13.4112 19.51 13.4025H19.5082Z" fill="#C4C4C4"/>
</svg>
