<svg width="38" height="38" fill="none" xmlns="http://www.w3.org/2000/svg"><path d="M19 0c-5.165 0-5.809.025-7.83.11-2.029.1-3.402.415-4.613.885a9.318 9.318 0 00-3.364 2.196A9.211 9.211 0 00.997 6.555C.527 7.766.212 9.139.112 11.168c-.091 2.023-.11 2.665-.11 7.83 0 5.164.025 5.808.11 7.829.1 2.023.415 3.402.885 4.613a9.318 9.318 0 002.196 3.364A9.21 9.21 0 006.557 37c1.211.464 2.59.785 4.613.885 2.023.091 2.665.11 7.83.11 5.164 0 5.808-.025 7.829-.11 2.023-.1 3.402-.422 4.613-.885a9.318 9.318 0 003.364-2.196 9.163 9.163 0 002.196-3.364c.464-1.211.785-2.59.885-4.613.091-2.023.11-2.665.11-7.83 0-5.164-.025-5.807-.11-7.829-.1-2.023-.422-3.409-.885-4.613a9.319 9.319 0 00-2.196-3.364A9.163 9.163 0 0031.442.995C30.231.525 28.852.21 26.83.11 24.806.02 24.164 0 18.999 0zm0 3.42c5.071 0 5.677.025 7.681.11 1.85.087 2.857.396 3.525.657.826.305 1.575.79 2.19 1.422a5.857 5.857 0 011.415 2.183c.261.669.57 1.676.657 3.525.085 2.004.11 2.611.11 7.682 0 5.07-.025 5.677-.117 7.682-.1 1.849-.409 2.856-.669 3.524-.36.892-.76 1.516-1.424 2.19a5.995 5.995 0 01-2.19 1.415c-.66.262-1.68.57-3.537.657-2.015.086-2.609.11-7.694.11-5.084 0-5.677-.024-7.695-.117-1.849-.1-2.869-.408-3.537-.669-.903-.36-1.521-.76-2.184-1.423-.669-.669-1.094-1.305-1.421-2.19-.266-.66-.57-1.682-.67-3.538-.067-1.991-.099-2.609-.099-7.67 0-5.058.032-5.677.1-7.693.099-1.857.403-2.875.669-3.538.327-.904.754-1.521 1.42-2.19.662-.661 1.282-1.089 2.185-1.424.668-.26 1.663-.568 3.52-.661 2.015-.072 2.609-.099 7.686-.099L19 3.42zm0 5.827a9.75 9.75 0 00-9.012 13.486A9.749 9.749 0 0019 28.753 9.748 9.748 0 0028.753 19 9.75 9.75 0 0019 9.247zm0 16.086A6.329 6.329 0 0112.667 19 6.33 6.33 0 0119 12.667c3.5 0 6.332 2.832 6.332 6.333A6.33 6.33 0 0119 25.333zM31.426 8.858a2.284 2.284 0 01-3.895 1.613 2.277 2.277 0 01.739-3.716 2.285 2.285 0 013.156 2.103z" fill="#E0DDDA"/></svg>